<svg width="184" height="49" viewBox="0 0 184 49" fill="none" xmlns="http://www.w3.org/2000/svg">
<g clip-path="url(#clip0_380_759)">
<path d="M113.875 45.8446V33.0761C105.21 30.9951 96.6958 28.9493 88.2118 26.9086C86.76 30.592 88.106 34.3056 91.7153 36.4421C97.1192 39.6367 102.851 39.7425 108.739 37.989C109.787 37.6766 110.871 37.5103 112.555 37.1425C111.642 40.8964 110.957 43.9802 110.08 47.0085C109.938 47.5023 108.971 47.9961 108.33 48.0768C97.0235 49.5582 86.8407 47.2907 78.382 39.022C75.7002 40.4076 72.9932 42.0805 70.0845 43.2596C64.4185 45.5573 58.5206 46.7062 52.3605 45.7387C47.7531 45.0131 43.8766 42.922 41.1595 39.1479C36.7083 32.9703 35.2968 26.0117 36.9805 18.5995C38.2256 13.1324 41.5779 9.0207 46.6995 6.77338C49.8854 5.37762 53.3284 4.26404 56.7613 3.81054C64.5495 2.78262 70.6592 6.66757 73.6283 14.0545C74.4349 16.065 75.0045 18.1662 75.7959 20.5848C78.4425 12.2556 83.1104 6.13345 91.9623 4.93924C100.159 3.8307 107.579 5.93693 113.764 12.5025V1.30624C114.233 1.04422 114.45 0.82251 114.662 0.82251C122.374 0.938403 130.133 0.590723 137.785 1.33647C146.274 2.16284 149.999 11.2731 144.983 17.8941C144.091 19.0732 142.821 19.96 141.57 21.119C141.943 21.3155 142.311 21.5825 142.725 21.7186C152.373 25.0089 151.431 36.6336 146.566 41.4356C143.96 44.0104 140.774 45.6783 137.16 45.7791C129.543 45.9907 121.911 45.8446 113.865 45.8446H113.875ZM50.1677 29.4885C51.1103 33.0106 53.0209 35.2126 56.2521 35.8878C62.1904 37.1223 67.2162 35.0362 71.9295 31.4939C74.6315 29.4633 75.4834 27.0849 74.7273 23.6384C66.5811 25.5783 58.4701 27.5133 50.1677 29.4935V29.4885ZM125.354 37.5557C128.666 37.9739 131.66 38.0041 134.589 37.1576C137.084 36.437 138.445 34.3762 138.369 31.8366C138.294 29.2517 136.892 27.3369 134.196 26.9086C131.73 26.5156 129.19 26.5508 126.684 26.5508C126.241 26.5508 125.424 27.2714 125.414 27.6795C125.308 30.9195 125.354 34.1696 125.354 37.5557ZM89.6939 19.1387C94.3669 20.2372 98.8685 21.3004 103.325 22.3484C104.908 18.2619 103.425 14.9111 99.7204 13.6413C95.0323 12.0339 91.2011 14.0092 89.6939 19.1337V19.1387ZM62.0946 18.5743C61.4393 15.7979 60.4008 13.6867 57.8501 12.8301C54.881 11.8324 52.1891 12.7394 50.0366 14.8305C48.1412 16.6697 47.5665 19.0077 48.3378 21.8546C52.9957 20.7461 57.4166 19.693 62.0996 18.5743H62.0946ZM125.349 18.8213C127.864 18.6298 129.941 18.6247 131.952 18.2771C134.281 17.8739 135.461 16.1759 135.451 13.7774C135.441 11.4545 134.15 9.75638 131.806 9.39862C130.168 9.15171 128.469 9.15675 126.816 9.27769C126.296 9.31296 125.439 10.0688 125.414 10.5324C125.278 13.0971 125.349 15.677 125.349 18.8213Z" fill="white"/>
<path d="M27.7404 20.8972C28.2748 21.1643 28.4865 21.3104 28.7184 21.381C39.0221 24.6411 37.9534 38.0898 31.1985 42.7154C28.2597 44.7309 25.0687 45.9151 21.5703 45.9806C14.6944 46.1116 7.80846 46.0461 0.932579 46.0461C0.695653 46.0461 0.458728 45.9201 0 45.7891V0.772097C0.640203 0.676359 1.27536 0.5 1.91053 0.5C8.37304 0.520155 14.8305 0.525194 21.293 0.646126C22.7801 0.671321 24.3075 0.953496 25.7392 1.37676C29.6308 2.52561 32.484 4.83844 33.1494 9.06099C33.84 13.4347 32.6856 17.2088 28.9956 19.965C28.668 20.2069 28.3403 20.4538 27.7455 20.8972H27.7404ZM11.6396 26.3694V37.6614C14.8507 37.3742 17.8753 37.3793 20.7688 36.7545C23.375 36.1951 24.3327 34.225 24.1714 31.3276C24.0303 28.7981 22.9062 27.2311 20.2546 26.8431C17.477 26.4349 14.6339 26.5105 11.6396 26.3644V26.3694ZM11.6043 18.4131C14.0996 18.2418 16.2924 18.3123 18.3794 17.884C20.552 17.4355 21.5804 15.5913 21.4241 13.3238C21.288 11.2932 20.1135 9.65053 18.1727 9.4389C16.0656 9.20712 13.908 9.38851 11.6043 9.38851V18.4131Z" fill="white"/>
<path d="M173.314 12.0087H183.627C183.708 12.8552 183.839 13.5808 183.839 14.3064C183.854 24.0415 183.854 33.7815 183.839 43.5166C183.839 46.0461 183.789 46.0864 181.339 46.1065C178.758 46.1317 176.172 46.1116 173.5 46.1116C173.308 44.9274 173.167 44.0457 172.966 42.791C172.033 43.4208 171.287 44.0759 170.43 44.4739C168.474 45.3809 166.523 46.6255 164.457 46.9178C156.976 47.9709 152.177 44.0205 151.804 36.1951C151.446 28.657 151.708 21.0887 151.668 13.5355C151.663 12.2002 152.303 11.7769 153.528 11.7971C155.796 11.8323 158.065 11.8878 160.328 11.782C162.143 11.6963 162.632 12.5176 162.617 14.1855C162.566 19.7232 162.617 25.2659 162.632 30.8036C162.632 31.4737 162.632 32.1489 162.677 32.8191C162.803 34.8951 163.07 37.0265 165.399 37.7421C167.94 38.518 170.46 38.0293 172.512 36.3211C173.061 35.8626 173.152 34.6482 173.162 33.7815C173.218 27.488 173.188 21.1895 173.203 14.896C173.203 13.994 173.278 13.0921 173.324 12.0037L173.314 12.0087Z" fill="white"/>
</g>
<defs>
<clipPath id="clip0_380_759">
<rect width="183.849" height="48" fill="white" transform="translate(0 0.5)"/>
</clipPath>
</defs>
</svg>
