<svg width="185" height="49" viewBox="0 0 185 49" fill="none" xmlns="http://www.w3.org/2000/svg">
<g clip-path="url(#clip0_380_710)">
<path d="M114.375 45.8446V33.0761C105.71 30.9951 97.1958 28.9493 88.7118 26.9086C87.26 30.592 88.606 34.3056 92.2153 36.4421C97.6192 39.6367 103.351 39.7425 109.239 37.989C110.287 37.6766 111.371 37.5103 113.055 37.1425C112.142 40.8964 111.457 43.9802 110.58 47.0085C110.438 47.5023 109.471 47.9961 108.83 48.0768C97.5235 49.5582 87.3407 47.2907 78.882 39.022C76.2002 40.4076 73.4932 42.0805 70.5845 43.2596C64.9185 45.5573 59.0206 46.7062 52.8605 45.7387C48.2531 45.0131 44.3766 42.922 41.6595 39.1479C37.2083 32.9703 35.7968 26.0117 37.4805 18.5995C38.7256 13.1324 42.0779 9.0207 47.1995 6.77338C50.3854 5.37762 53.8284 4.26404 57.2613 3.81054C65.0495 2.78262 71.1592 6.66757 74.1283 14.0545C74.9349 16.065 75.5045 18.1662 76.2959 20.5848C78.9425 12.2556 83.6104 6.13345 92.4623 4.93924C100.659 3.8307 108.079 5.93693 114.264 12.5025V1.30624C114.733 1.04422 114.95 0.82251 115.162 0.82251C122.874 0.938403 130.633 0.590723 138.285 1.33647C146.774 2.16284 150.499 11.2731 145.483 17.8941C144.591 19.0732 143.321 19.96 142.07 21.119C142.443 21.3155 142.811 21.5825 143.225 21.7186C152.873 25.0089 151.931 36.6336 147.066 41.4356C144.46 44.0104 141.274 45.6783 137.66 45.7791C130.043 45.9907 122.411 45.8446 114.365 45.8446H114.375ZM50.6677 29.4885C51.6103 33.0106 53.5209 35.2126 56.7521 35.8878C62.6904 37.1223 67.7162 35.0362 72.4295 31.4939C75.1315 29.4633 75.9834 27.0849 75.2273 23.6384C67.0811 25.5783 58.9701 27.5133 50.6677 29.4935V29.4885ZM125.854 37.5557C129.166 37.9739 132.16 38.0041 135.089 37.1576C137.584 36.437 138.945 34.3762 138.869 31.8366C138.794 29.2517 137.392 27.3369 134.696 26.9086C132.23 26.5156 129.69 26.5508 127.184 26.5508C126.741 26.5508 125.924 27.2714 125.914 27.6795C125.808 30.9195 125.854 34.1696 125.854 37.5557ZM90.1939 19.1387C94.8669 20.2372 99.3685 21.3004 103.825 22.3484C105.408 18.2619 103.925 14.9111 100.22 13.6413C95.5323 12.0339 91.7011 14.0092 90.1939 19.1337V19.1387ZM62.5946 18.5743C61.9393 15.7979 60.9008 13.6867 58.3501 12.8301C55.381 11.8324 52.6891 12.7394 50.5366 14.8305C48.6412 16.6697 48.0665 19.0077 48.8378 21.8546C53.4957 20.7461 57.9166 19.693 62.5996 18.5743H62.5946ZM125.849 18.8213C128.364 18.6298 130.441 18.6247 132.452 18.2771C134.781 17.8739 135.961 16.1759 135.951 13.7774C135.941 11.4545 134.65 9.75638 132.306 9.39862C130.668 9.15171 128.969 9.15675 127.316 9.27769C126.796 9.31296 125.939 10.0688 125.914 10.5324C125.778 13.0971 125.849 15.677 125.849 18.8213Z" fill="#020202"/>
<path d="M28.2404 20.8972C28.7748 21.1643 28.9865 21.3104 29.2184 21.381C39.5221 24.6411 38.4534 38.0898 31.6985 42.7154C28.7597 44.7309 25.5687 45.9151 22.0703 45.9806C15.1944 46.1116 8.30846 46.0461 1.43258 46.0461C1.19565 46.0461 0.958728 45.9201 0.5 45.7891V0.772097C1.1402 0.676359 1.77536 0.5 2.41053 0.5C8.87304 0.520155 15.3305 0.525194 21.793 0.646126C23.2801 0.671321 24.8075 0.953496 26.2392 1.37676C30.1308 2.52561 32.984 4.83844 33.6494 9.06099C34.34 13.4347 33.1856 17.2088 29.4956 19.965C29.168 20.2069 28.8403 20.4538 28.2455 20.8972H28.2404ZM12.1396 26.3694V37.6614C15.3507 37.3742 18.3753 37.3793 21.2688 36.7545C23.875 36.1951 24.8327 34.225 24.6714 31.3276C24.5303 28.7981 23.4062 27.2311 20.7546 26.8431C17.977 26.4349 15.1339 26.5105 12.1396 26.3644V26.3694ZM12.1043 18.4131C14.5996 18.2418 16.7924 18.3123 18.8794 17.884C21.052 17.4355 22.0804 15.5913 21.9241 13.3238C21.788 11.2932 20.6135 9.65053 18.6727 9.4389C16.5656 9.20712 14.408 9.38851 12.1043 9.38851V18.4131Z" fill="#020202"/>
<path d="M173.813 12.0087H184.127C184.208 12.8552 184.339 13.5808 184.339 14.3064C184.354 24.0415 184.354 33.7815 184.339 43.5166C184.339 46.0461 184.289 46.0864 181.839 46.1065C179.258 46.1317 176.672 46.1116 174 46.1116C173.808 44.9274 173.667 44.0457 173.466 42.791C172.533 43.4208 171.787 44.0759 170.93 44.4739C168.974 45.3809 167.023 46.6255 164.956 46.9178C157.476 47.9709 152.677 44.0205 152.304 36.1951C151.946 28.657 152.208 21.0887 152.168 13.5355C152.162 12.2002 152.803 11.7769 154.028 11.7971C156.296 11.8323 158.564 11.8878 160.828 11.782C162.643 11.6963 163.132 12.5176 163.116 14.1855C163.066 19.7232 163.116 25.2659 163.132 30.8036C163.132 31.4737 163.132 32.1489 163.177 32.8191C163.303 34.8951 163.57 37.0265 165.899 37.7421C168.44 38.518 170.96 38.0293 173.012 36.3211C173.561 35.8626 173.652 34.6482 173.662 33.7815C173.718 27.488 173.687 21.1895 173.703 14.896C173.703 13.994 173.778 13.0921 173.823 12.0037L173.813 12.0087Z" fill="#020202"/>
</g>
<defs>
<clipPath id="clip0_380_710">
<rect width="183.849" height="48" fill="white" transform="translate(0.5 0.5)"/>
</clipPath>
</defs>
</svg>
